<svg xmlns="http://www.w3.org/2000/svg" xmlns:xlink="http://www.w3.org/1999/xlink" width="225" height="231.081" viewBox="0 0 225 231.081"><defs><clipPath id="a"><rect width="225" height="231.081" fill="none"/></clipPath><filter id="b" width="200.027" height="206.108" x="12.486" y="8.324" filterUnits="userSpaceOnUse"><feOffset dy="8" input="SourceAlpha"/><feGaussianBlur result="c" stdDeviation="8"/><feFlood flood-color="#9c27b0" flood-opacity=".361"/><feComposite in2="c" operator="in"/><feComposite in="SourceGraphic"/></filter><clipPath id="d"><rect width="102.8" height="133.581" fill="none"/></clipPath></defs><g clip-path="url(#a)"><g><g filter="url(#b)" transform="translate(36.486 24.324) matrix(1, 0, 0, 1, -36.49, -24.32)"><rect width="152.027" height="158.108" fill="#e91e63" rx="3" transform="translate(36.49 24.32)"/></g></g><g clip-path="url(#d)" transform="translate(60.8 36.7)"><path fill="#fff" d="M634,5794.1h6.914v-7.038H634Zm0,14.065h6.914v-7.03H634Zm0-28.132h6.914V5773H634Zm13.828,14.067h48.394v-7.038H647.828Zm0,14.065h48.394v-7.03H647.828Zm0-35.167v7.035h48.394V5773Z" transform="translate(-616.014 -5747.225)"/><text fill="#fff" font-family="Roboto-Regular, Roboto" font-size="18" transform="translate(49.2 121.3)"><tspan x="-49.948" y="0">MY CHORES</tspan></text></g></g></svg>